# xmcd
# 
# Track frame offsets:
#     150
#     14051
#     32433
#     46064
#     64473
#     77888
#     96432
#     112088
#     123776
#     138190
#     155384
#     171552
#     187801
#     204914
#     225860
#     246968
#     268535
#     282976
#     298146
#     315502
# 
# Disc length: 4344
# 
# Revision: 1
# Processed by: cddbd v1.5.2PL0 Copyright (c) Steve Scherf et al.
# Submitted via: BonkEnc v1.0
# 
DISCID=1910f614
DTITLE=Chrystian and Ralf - As 20 Mais
DYEAR=0
DGENRE=Sertanejo
TTITLE0=Machucando Coração
TTITLE1=Esse Amor que me Ama
TTITLE2=Vira virou
TTITLE3=O que Tiver que vir Verá
TTITLE4=Flecha Certeira
TTITLE5=Sou Eu
TTITLE6=Cheio de Shampoo
TTITLE7=Saudade
TTITLE8=Mito
TTITLE9=Ausência
TTITLE10=Brigas
TTITLE11=Tempo ao Tempo
TTITLE12=Trato é Trato
TTITLE13=Yolanda
TTITLE14=Na Lua Deste Sol
TTITLE15=Olhos de Luar
TTITLE16=Amargurado
TTITLE17=O Ipê e o Prisioneiro
TTITLE18=Caminheiro
TTITLE19=Ladrão de Mulher
EXTD=
EXTT0=
EXTT1=
EXTT2=
EXTT3=
EXTT4=
EXTT5=
EXTT6=
EXTT7=
EXTT8=
EXTT9=
EXTT10=
EXTT11=
EXTT12=
EXTT13=
EXTT14=
EXTT15=
EXTT16=
EXTT17=
EXTT18=
EXTT19=
PLAYORDER=
